<svg xmlns="http://www.w3.org/2000/svg" version="1.1" xmlns:xlink="http://www.w3.org/1999/xlink" width="512" height="512" x="0" y="0" viewBox="0 0 1024 1024" style="enable-background:new 0 0 512 512" xml:space="preserve" class=""><g><path d="M447 528.5v252c0 32.5-26 59.5-58.5 59.5h-252C104 840 77 813 77 780.5v-374C77 284.4 177.4 185 299.5 185h20c12.2 0 21.5 9.3 21.5 21.5v76c0 12.1-9.8 22-22 22-67.1 0-122 54.9-122 122V470h191.5c32.5 0 58.5 26 58.5 58.5z" fill="#dcd8d8" opacity="1" data-original="#000000" class=""></path><path d="M427 528.5V780.5c0 .9 0 1.9-.1 2.8 0 .7-.1 1.4-.1 2.1-.1 1-.9 3.3 0 .8 1-2.8-.4 1.7-.6 2.7-.3 1.3-.7 2.6-1.1 3.9s-.9 2.5-1.3 3.8c-.5 1.2-1.3 1.4 0 .1 1.6-1.6.1-.4-.4.6-1.3 2.3-2.6 4.6-4 6.8-.1.2-1 1.6-1.1 1.6-.2 0 2.7-3 1.1-1.4-1.2 1.2-2.3 2.7-3.5 3.9-.9.9-1.9 1.9-2.8 2.7-.7.6-4 2.7-1.5 1.4 2.6-1.4-1.1.7-1.7 1.1-1.3.8-2.6 1.6-4 2.4-.4.2-3.3 2-3.6 1.8-.1-.1 3.9-1.5 1.7-.7-.6.2-1.2.5-1.9.7-2.5.9-7 1-9.1 2.3 0 0 4.2-.4 1.9-.2-.7 0-1.4.1-2.1.2-1.4.1-2.8.1-4.2.2h-206c-15.3 0-30.6.2-45.9 0-1.2 0-2.3 0-3.5-.1-.7 0-1.4-.1-2.1-.2-1.4-.1-1.7-.9-.1 0 1.7 1 1.2.2-.1-.1l-2.7-.6c-1.5-.4-3.1-.8-4.6-1.3-.7-.2-4.8-1.8-2-.7 2.8 1.2-1.2-.6-1.9-1-2.6-1.3-5-2.9-7.4-4.5-3-2 2.5 2.3-.1-.2-1.1-1.1-2.3-2.1-3.4-3.2-.9-.9-1.8-1.9-2.7-2.9-.2-.2-1.3-1.3-1.3-1.5-.1.3 2.4 3.5.7.9-1.5-2.2-3-4.4-4.2-6.8-.6-1.1-1-2.7-1.8-3.6.1.1 1.4 3.7.7 1.7-.3-.9-.6-1.7-.9-2.5-.8-2.3-.9-6.6-2.1-8.6 0 0 .4 4.2.2 1.9-.1-.7-.1-1.4-.2-2.1-.1-1.4-.1-2.8-.2-4.2V407c0-7.1.3-14.2 1-21.3.1-1.4.3-2.7.4-4.1.1-.7.2-1.4.2-2 .2-2.3-.3 1.9-.3 1.9.6-3.1 1-6.3 1.5-9.4 1-5.6 2.3-11.1 3.7-16.5 1.5-5.6 3.2-11.2 5.2-16.7.9-2.5 1.8-5 2.8-7.5.3-.7 1.8-4.8.8-1.9-1 2.8.7-1.7 1.1-2.5 4.7-10.5 10.2-20.5 16.5-30.1 3-4.6 6.2-9 9.5-13.4 1.3-1.8-1.1 1.5-1.1 1.4.1-.4.9-1.2 1.2-1.5.8-1 1.7-2 2.5-3.1 2-2.4 4-4.7 6-7 7.5-8.3 15.6-16 24.2-23.1 1-.8 2-1.7 3.1-2.5 2.9-2.4-2.9 2.1.1-.1 2.3-1.7 4.6-3.4 6.9-5 4.7-3.3 9.5-6.4 14.4-9.3s10-5.6 15.1-8.2c2.4-1.2 4.8-2.3 7.2-3.4.7-.3 4.7-2.1 1.9-.8-2.8 1.2 1.8-.7 2.5-1 10.6-4.2 21.6-7.6 32.7-10.1 5.8-1.3 11.6-2.3 17.4-3.2 2.3-.3-1.9.3-1.9.3.7 0 1.4-.2 2.1-.2 1.4-.2 2.7-.3 4.1-.4 3.2-.3 6.5-.6 9.7-.7 8-.4 15.9-.3 23.9-.3 2.7 0 5.3.1 8 0 0 0 1.4.1 1.4 0-.4.4-3.7-1.2-2-.3.5.2 1.4.4 1.9.5 3.7.8-1.4-.1-1.2-.5 0 0 1.5.9 1.6 1 1.8 1.2-1.6-1.2-1.5-1.2 0 0 1.3 1.2 1.3 1.3 1.6 2.1-2.3-3.3-.8-1.1.1.1 1 1.6 1 1.6-.3.1-1.1-4-.8-1.8.1.7 1.3 5 .6 1.9-.6-2.7-.1-.4-.2.5V284.2c.1-.4.1-.9.2-1.3.3-1.7.2-1.7-.1 0-.1.2-.1.4-.2.6-.3 1-.2.9.3-.5.6-1.3.7-1.5.2-.6l-.6 1.2c-.1.1-1 1.7-1 1.7.1 0 2.3-3.3 1.1-1.5l-1.4 1.4c-.3-.3 3.6-2 1.5-1.2-.5.2-1.2.7-1.7 1-1.9 1.2-.6-.4 0 .1.4-.2.8-.4 1.2-.5-.4.1-.9.2-1.3.4-.4.1-.9.2-1.3.3.9-.1 1.7-.3 2.6-.4-1.3-.9-7.5.2-9.1.3-3 .2-6 .5-8.9.9-26.9 3.5-51.1 13.8-72.4 30.6-19.8 15.6-34.2 36.5-43.5 59.8-7.4 18.3-9.5 37.8-9.5 57.3v36.7c0 10.8 9.2 20 20 20h88.8c33.8 0 67.6-.1 101.4 0 2.2 0 7.2-.8 8.3.4-.3-.4-4.2-.7-1.3-.1 1.3.3 2.6.5 4 .9 1.9.5 3.8 1.3 5.7 1.8 2.7.7-4.4-2.2-.5-.2 1 .5 2 1 2.9 1.5 1.7.9 3.4 1.9 5 3-.1 0 2.1 1.3 2.1 1.5-2.1-1.7-2.6-2.1-1.5-1.1.5.4 1 .8 1.5 1.3 1.6 1.4 3.1 3 4.6 4.6.2.3 1.7 1.9 1.7 2 .1-.2-2.7-4-.4-.4 1.2 1.8 2.4 3.6 3.4 5.6.4.8.8 1.6 1.2 2.3 1.9 3.8.1-.5-.2-.5.6 0 1.9 5.7 2.1 6.3.2.9.4 1.7.6 2.6.1.7.3 1.3.4 2 .3 1.5.2.9-.2-1.9 1 .1.6 5.4.6 6.4.1 10.5 9.1 20.5 20 20 10.7-.5 20.1-8.8 20-20-.2-20-7.6-38.9-21.1-53.7-13.4-14.7-32.2-22.7-51.8-24.6-10.5-1-21.3-.3-31.8-.3H197.1l20 20v-43.5c0-2.6.1-5.1.2-7.7.1-1.6.2-3.2.4-4.8.1-.7.2-1.4.2-2.1.3-2.8-.7 4-.2 1.2 1.1-5.8 2.2-11.5 4-17.1.9-2.8 1.8-5.5 2.9-8.2.2-.6.5-1.2.7-1.9.8-2.1-.7 1.8-.7 1.7-.3-.6 1.7-3.6 2-4.2 2.6-5.3 5.6-10.5 8.9-15.4.7-1.1 1.5-2.1 2.3-3.2 2.1-3-2.3 2.7.1-.1 1.9-2.4 3.9-4.7 6-7 3.9-4.2 8-8.1 12.4-11.7l1.5-1.2c1.7-1.4-1.5 1.2-1.4 1.1.1-.6 2.7-2 3.2-2.3 2.5-1.8 5.1-3.4 7.7-5 2.5-1.5 5-2.8 7.5-4.1 1.2-.6 2.4-1.1 3.6-1.7.2-.1 1.6-.9 1.8-.8-.4-.2-4 1.6-1.1.5 5.4-2.1 10.9-3.9 16.6-5.3 2.9-.7 5.7-1.3 8.6-1.8.6-.1 1.4-.1 2-.3 0 0-4.2.5-1.9.3 1.8-.2 3.7-.4 5.5-.5 7.2-.5 14.7.1 21.7-2.3 17.5-5.9 28.9-21.6 29.4-40 .1-3.5 0-6.9 0-10.4v-48.5c0-17.2 1-35.2-13.5-47.8-10.1-8.8-21.7-10.8-34.6-10.8-8 0-16-.1-23.9.2-51.5 2.4-100 21.1-140.5 52.8-38.2 29.9-66.7 72-81 118.3-8.1 26.2-10.5 53.2-10.5 80.5v339.9c0 17.3-1.4 35.5 5.3 51.9 11.8 28.8 37 47.8 67.9 51.2 5.7.6 11.5.3 17.2.3H387c44.4-.1 79.8-36.2 79.9-80.4.1-19.1 0-38.3 0-57.4V528.6c0-10.5-9.2-20.5-20-20-10.7.4-19.9 8.7-19.9 19.9zM946 528.5v252c0 32.5-26 59.5-58.5 59.5h-252c-32.5 0-59.5-27-59.5-59.5v-374C576 284.4 676.4 185 798.5 185h20c12.2 0 21.5 9.3 21.5 21.5v76c0 12.1-9.8 22-22 22-67.1 0-122 54.9-122 122V470h191.5c32.5 0 58.5 26 58.5 58.5z" fill="#dcd8d8" opacity="1" data-original="#000000" class=""></path><path d="M926 528.5V780.5c0 .9 0 1.9-.1 2.8 0 .7-.1 1.4-.1 2.1-.1 1-.9 3.3 0 .8 1-2.8-.4 1.7-.6 2.7-.3 1.3-.7 2.6-1.1 3.9s-.9 2.5-1.3 3.8c-.5 1.2-1.3 1.4 0 .1 1.6-1.6.1-.4-.4.6-1.3 2.3-2.6 4.6-4 6.8-.1.2-1 1.6-1.1 1.6-.2 0 2.7-3 1.1-1.4-1.2 1.2-2.3 2.7-3.5 3.9-.9.9-1.9 1.9-2.8 2.7-.7.6-4 2.7-1.5 1.4 2.6-1.4-1.1.7-1.7 1.1-1.3.8-2.6 1.6-4 2.4-.4.2-3.3 2-3.6 1.8-.1-.1 3.9-1.5 1.7-.7-.6.2-1.2.5-1.9.7-2.5.9-7 1-9.1 2.3 0 0 4.2-.4 1.9-.2-.7 0-1.4.1-2.1.2-1.4.1-2.8.1-4.2.2h-206c-15.3 0-30.6.2-45.9 0-1.2 0-2.3 0-3.5-.1-.7 0-1.4-.1-2.1-.2-1.4-.1-1.7-.9-.1 0 1.7 1 1.2.2-.1-.1l-2.7-.6c-1.5-.4-3.1-.8-4.6-1.3-.7-.2-4.8-1.8-2-.7 2.8 1.2-1.2-.6-1.9-1-2.6-1.3-5-2.9-7.4-4.5-3-2 2.5 2.3-.1-.2-1.1-1.1-2.3-2.1-3.4-3.2-.9-.9-1.8-1.9-2.7-2.9-.2-.2-1.3-1.3-1.3-1.5-.1.3 2.4 3.5.7.9-1.5-2.2-3-4.4-4.2-6.8-.6-1.1-1-2.7-1.8-3.6.1.1 1.4 3.7.7 1.7-.3-.9-.6-1.7-.9-2.5-.8-2.3-.9-6.6-2.1-8.6 0 0 .4 4.2.2 1.9-.1-.7-.1-1.4-.2-2.1-.1-1.4-.1-2.8-.2-4.2V407c0-7.1.3-14.2 1-21.3.1-1.4.3-2.7.4-4.1.1-.7.2-1.4.2-2 .2-2.3-.3 1.9-.3 1.9.6-3.1 1-6.3 1.5-9.4 1-5.6 2.3-11.1 3.7-16.5 1.5-5.6 3.2-11.2 5.2-16.7.9-2.5 1.8-5 2.8-7.5.3-.7 1.8-4.8.8-1.9-1 2.8.7-1.7 1.1-2.5 4.7-10.5 10.2-20.5 16.5-30.1 3-4.6 6.2-9 9.5-13.4 1.3-1.8-1.1 1.5-1.1 1.4.1-.4.9-1.2 1.2-1.5.8-1 1.7-2 2.5-3.1 2-2.4 4-4.7 6-7 7.5-8.3 15.6-16 24.2-23.1 1-.8 2-1.7 3.1-2.5 2.9-2.4-2.9 2.1.1-.1 2.3-1.7 4.6-3.4 6.9-5 4.7-3.3 9.5-6.4 14.4-9.3s10-5.6 15.1-8.2c2.4-1.2 4.8-2.3 7.2-3.4.7-.3 4.7-2.1 1.9-.8-2.8 1.2 1.8-.7 2.5-1 10.6-4.2 21.6-7.6 32.7-10.1 5.8-1.3 11.6-2.3 17.4-3.2 2.3-.3-1.9.3-1.9.3.7 0 1.4-.2 2.1-.2 1.4-.2 2.7-.3 4.1-.4 3.2-.3 6.5-.6 9.7-.7 8-.4 15.9-.3 23.9-.3 2.7 0 5.3.1 8 0 0 0 1.4.1 1.4 0-.4.4-3.7-1.2-2-.3.5.2 1.4.4 1.9.5 3.7.8-1.4-.1-1.2-.5 0 0 1.5.9 1.6 1 1.8 1.2-1.6-1.2-1.5-1.2 0 0 1.3 1.2 1.3 1.3 1.6 2.1-2.3-3.3-.8-1.1.1.1 1 1.6 1 1.6-.3.1-1.1-4-.8-1.8.1.7 1.3 5 .6 1.9-.6-2.7-.1-.4-.2.5V284.2c.1-.4.1-.9.2-1.3.3-1.7.2-1.7-.1 0-.1.2-.1.4-.2.6-.3 1-.2.9.3-.5.6-1.3.7-1.5.2-.6l-.6 1.2c-.1.1-1 1.7-1 1.7.1 0 2.3-3.3 1.1-1.5l-1.4 1.4c-.3-.3 3.6-2 1.5-1.2-.5.2-1.2.7-1.7 1-1.9 1.2-.6-.4 0 .1.4-.2.8-.4 1.2-.5-.4.1-.9.2-1.3.4-.4.1-.9.2-1.3.3.9-.1 1.7-.3 2.6-.4-1.3-.9-7.5.2-9.1.3-3 .2-6 .5-8.9.9-26.9 3.5-51.1 13.8-72.4 30.6-19.8 15.6-34.2 36.5-43.5 59.8-7.4 18.3-9.5 37.8-9.5 57.3v36.7c0 10.8 9.2 20 20 20h88.8c33.8 0 67.6-.1 101.4 0 2.2 0 7.2-.8 8.3.4-.3-.4-4.2-.7-1.3-.1 1.3.3 2.6.5 4 .9 1.9.5 3.8 1.3 5.7 1.8 2.7.7-4.4-2.2-.5-.2 1 .5 2 1 2.9 1.5 1.7.9 3.4 1.9 5 3-.1 0 2.1 1.3 2.1 1.5-2.1-1.7-2.6-2.1-1.5-1.1.5.4 1 .8 1.5 1.3 1.6 1.4 3.1 3 4.6 4.6.2.3 1.7 1.9 1.7 2 .1-.2-2.7-4-.4-.4 1.2 1.8 2.4 3.6 3.4 5.6.4.8.8 1.6 1.2 2.3 1.9 3.8.1-.5-.2-.5.6 0 1.9 5.7 2.1 6.3.2.9.4 1.7.6 2.6.1.7.3 1.3.4 2 .3 1.5.2.9-.2-1.9 1 .1.6 5.4.6 6.4.1 10.5 9.1 20.5 20 20 10.7-.5 20.1-8.8 20-20-.2-20-7.6-38.9-21.1-53.7-13.4-14.7-32.2-22.7-51.8-24.6-10.5-1-21.3-.3-31.8-.3H696.1l20 20v-43.5c0-2.6.1-5.1.2-7.7.1-1.6.2-3.2.4-4.8.1-.7.2-1.4.2-2.1.3-2.8-.7 4-.2 1.2 1.1-5.8 2.2-11.5 4-17.1.9-2.8 1.8-5.5 2.9-8.2.2-.6.5-1.2.7-1.9.8-2.1-.7 1.8-.7 1.7-.3-.6 1.7-3.6 2-4.2 2.6-5.3 5.6-10.5 8.9-15.4.7-1.1 1.5-2.1 2.3-3.2 2.1-3-2.3 2.7.1-.1 1.9-2.4 3.9-4.7 6-7 3.9-4.2 8-8.1 12.4-11.7l1.5-1.2c1.7-1.4-1.5 1.2-1.4 1.1.1-.6 2.7-2 3.2-2.3 2.5-1.8 5.1-3.4 7.7-5 2.5-1.5 5-2.8 7.5-4.1 1.2-.6 2.4-1.1 3.6-1.7.2-.1 1.6-.9 1.8-.8-.4-.2-4 1.6-1.1.5 5.4-2.1 10.9-3.9 16.6-5.3 2.9-.7 5.7-1.3 8.6-1.8.6-.1 1.4-.1 2-.3 0 0-4.2.5-1.9.3 1.8-.2 3.7-.4 5.5-.5 7.2-.5 14.7.1 21.7-2.3 17.5-5.9 28.9-21.6 29.4-40 .1-3.5 0-6.9 0-10.4v-48.5c0-17.2 1-35.2-13.5-47.8-10.1-8.8-21.7-10.8-34.6-10.8-8 0-16-.1-23.9.2-51.5 2.4-100 21.1-140.5 52.8-38.2 29.9-66.7 72-81 118.3-8.1 26.1-10.5 53.2-10.5 80.4v339.9c0 17.3-1.4 35.5 5.3 51.9 11.8 28.8 37 47.8 67.9 51.2 5.7.6 11.5.3 17.2.3H886c44.4-.1 79.8-36.2 79.9-80.4.1-19.1 0-38.3 0-57.4V528.5c0-10.5-9.2-20.5-20-20-10.7.5-19.9 8.8-19.9 20z" fill="#dcd8d8" opacity="1" data-original="#000000" class=""></path></g></svg>